<?xml version="1.0" standalone="no"?>
<!DOCTYPE svg PUBLIC "-//W3C//DTD SVG 20010904//EN"
 "http://www.w3.org/TR/2001/REC-SVG-20010904/DTD/svg10.dtd">
<svg version="1.0" xmlns="http://www.w3.org/2000/svg"
 width="900.000000pt" height="900.000000pt" viewBox="0 0 900.000000 900.000000"
 preserveAspectRatio="xMidYMid meet">
<metadata>
Created by potrace 1.11, written by Peter Selinger 2001-2013
</metadata>
<g transform="translate(0.000000,900.000000) scale(0.100000,-0.100000)"
fill="#000000" stroke="none">
<path d="M6358 8034 c-2 -1 -55 -5 -119 -9 -64 -3 -126 -7 -137 -10 -12 -2
-54 -6 -94 -9 -70 -6 -124 -12 -178 -22 -14 -2 -41 -6 -60 -8 -62 -7 -124 -16
-150 -22 -14 -4 -35 -6 -47 -6 -13 0 -23 -5 -23 -10 0 -6 -6 -8 -14 -5 -8 3
-54 -3 -102 -14 -49 -11 -100 -22 -114 -25 -14 -3 -41 -9 -60 -14 -19 -5 -48
-12 -65 -15 -32 -7 -42 -9 -65 -17 -8 -3 -53 -15 -100 -27 -131 -33 -510 -155
-640 -206 -19 -8 -109 -42 -200 -76 -91 -34 -181 -69 -200 -77 -19 -9 -39 -17
-45 -18 -5 -1 -62 -22 -125 -47 -291 -114 -412 -161 -420 -162 -8 -1 -102 -36
-130 -48 -14 -6 -29 -11 -35 -13 -14 -3 -106 -34 -125 -41 -8 -4 -17 -7 -20
-8 -3 -1 -12 -4 -20 -8 -29 -11 -353 -107 -380 -112 -8 -2 -15 -4 -15 -5 0 -1
-7 -3 -15 -5 -8 -1 -71 -16 -140 -33 -69 -17 -138 -33 -155 -35 -16 -3 -63
-12 -103 -21 -40 -9 -89 -18 -110 -21 -20 -3 -48 -7 -62 -9 -14 -3 -43 -7 -65
-11 -22 -3 -53 -8 -70 -11 -16 -2 -52 -7 -80 -9 -27 -3 -72 -8 -100 -11 -194
-20 -372 -28 -630 -27 -238 0 -482 8 -547 18 -18 3 -62 7 -98 10 -136 11 -175
14 -204 19 -17 3 -53 8 -81 11 -27 4 -61 8 -75 10 -14 2 -51 7 -82 10 l-58 7
0 -2931 0 -2931 23 -1 c12 -1 31 -3 42 -4 11 -2 60 -6 110 -10 50 -3 104 -9
120 -11 17 -3 59 -7 95 -9 36 -2 130 -7 210 -12 80 -4 296 -7 480 -7 299 1
428 5 595 19 28 3 75 7 105 9 87 7 164 16 275 32 22 3 54 7 70 8 17 2 46 7 65
10 19 4 51 9 70 11 19 3 46 7 60 10 14 3 39 7 55 10 17 3 44 8 60 12 17 3 40
7 52 9 11 1 29 5 40 8 10 3 34 8 53 11 19 3 43 8 52 11 17 5 43 11 88 20 102
21 396 101 580 158 47 15 92 29 100 31 8 2 16 4 18 5 1 2 5 3 10 4 9 2 143 46
162 53 8 3 20 7 25 9 6 1 62 21 125 44 63 23 120 43 125 44 6 2 17 6 25 9 8 3
47 16 85 30 39 14 93 33 120 43 28 11 52 19 55 20 3 0 12 4 20 7 8 4 80 30
160 57 80 28 152 53 160 57 8 3 20 7 25 8 6 2 78 26 160 55 83 28 155 53 160
54 28 7 100 29 156 46 34 11 72 22 83 25 12 3 89 23 171 45 83 22 162 42 177
45 16 3 58 12 95 21 38 9 82 18 98 21 17 2 41 7 55 9 81 17 305 53 360 59 14
1 52 5 85 9 177 19 272 26 416 32 227 9 399 9 399 2 0 -4 11 -3 24 2 13 5 26
7 28 5 2 -2 64 -7 138 -10 74 -3 162 -8 195 -11 33 -3 85 -7 115 -9 30 -3 85
-7 121 -10 l66 -6 0 2931 c1 2710 0 2930 -16 2931 -9 0 -27 2 -41 4 -67 10
-293 30 -440 40 -85 6 -757 14 -762 9z m-1491 -1921 c32 -3 80 -12 108 -19 27
-8 57 -16 65 -18 59 -15 215 -102 258 -143 10 -10 28 -26 40 -37 l21 -18 -5
106 -5 106 48 1 c81 1 355 9 411 12 32 2 52 -1 52 -7 2 -29 10 -290 15 -436 2
-91 7 -239 10 -330 3 -91 7 -228 10 -305 2 -77 7 -237 11 -355 9 -275 10 -510
1 -580 -28 -225 -104 -394 -241 -532 -100 -101 -271 -195 -422 -233 -49 -13
-153 -35 -194 -41 -59 -9 -411 -10 -475 -1 -100 15 -296 68 -387 106 -102 43
-103 44 -71 119 9 20 18 42 19 47 1 6 25 73 52 150 33 94 54 139 63 138 8 -1
60 -18 115 -37 102 -35 129 -43 194 -53 19 -3 55 -9 80 -14 45 -8 271 -5 344
5 49 7 158 42 206 66 60 31 127 102 157 165 22 49 27 78 31 165 l5 105 -59
-56 c-99 -94 -246 -176 -347 -193 -18 -4 -50 -10 -72 -16 -50 -12 -302 -6
-370 9 -118 26 -279 95 -331 142 -11 11 -24 19 -28 19 -4 0 -13 6 -20 13 -7 6
-31 28 -52 48 -106 99 -175 201 -244 364 -22 50 -51 152 -66 230 -17 92 -23
319 -11 415 19 142 71 304 129 403 15 26 28 52 28 57 0 4 3 10 8 12 4 2 26 29
50 60 49 67 123 138 196 189 59 42 166 101 166 92 0 -3 6 0 14 6 16 14 121 47
173 56 12 2 35 6 51 10 17 3 65 8 108 10 42 2 79 7 82 9 2 3 9 3 13 0 5 -3 34
-8 66 -11z m-1393 -674 c3 -3 8 -50 11 -105 3 -54 8 -130 10 -169 6 -73 13
-182 20 -320 5 -85 11 -178 20 -310 3 -44 8 -120 10 -170 2 -49 7 -121 10
-160 10 -141 17 -242 20 -305 1 -36 4 -65 4 -65 8 0 13 -373 6 -425 -11 -76
-27 -156 -42 -200 -22 -67 -85 -200 -95 -200 -4 0 -8 -5 -8 -10 0 -16 -17 -35
-101 -119 -93 -92 -90 -90 -175 -138 -78 -44 -202 -94 -269 -109 -126 -28
-168 -36 -205 -40 -152 -15 -254 -17 -362 -9 -60 4 -84 7 -143 19 -11 2 -40 7
-65 12 -51 9 -59 11 -62 14 -2 1 -11 3 -20 5 -22 4 -117 34 -143 45 -11 4 -36
14 -55 21 -48 17 -56 25 -40 44 7 8 10 15 6 15 -3 0 -1 12 5 28 6 15 12 34 14
42 4 13 89 277 100 307 3 9 16 8 50 -7 44 -19 133 -46 185 -56 14 -2 39 -7 55
-11 63 -13 84 -15 205 -16 329 -5 521 72 602 241 29 60 32 77 33 167 1 55 1
103 -1 106 -2 4 -30 -19 -61 -51 -93 -92 -249 -182 -355 -204 -13 -3 -34 -7
-48 -11 -25 -5 -117 -17 -135 -17 -5 0 -23 0 -40 1 -16 0 -39 0 -50 -1 -35 -2
-131 11 -196 27 -35 9 -71 17 -80 20 -54 12 -220 98 -227 116 -2 5 -9 9 -16 9
-23 0 -174 156 -227 235 -54 82 -133 254 -144 314 -3 19 -8 38 -11 43 -3 5 -7
18 -9 31 -2 12 -6 38 -10 57 -19 112 -24 277 -12 394 38 357 231 649 527 797
230 115 501 139 725 64 68 -23 175 -76 175 -86 0 -5 5 -9 11 -9 7 0 37 -21 68
-47 30 -27 52 -43 49 -38 -3 6 -9 55 -12 110 l-7 101 53 2 c29 2 80 5 113 7
33 2 107 7 165 10 58 4 106 8 107 9 5 5 62 1 67 -5z"/>
<path d="M4807 5644 c-1 -1 -25 -4 -53 -8 -79 -9 -200 -60 -212 -88 -2 -4 -9
-8 -14 -8 -6 0 -32 -22 -57 -49 -46 -50 -101 -146 -126 -221 -1 -3 -5 -23 -9
-45 -4 -22 -11 -48 -16 -57 -5 -9 -6 -19 -1 -22 5 -3 5 -23 2 -43 -7 -41 -7
-50 3 -138 9 -75 26 -146 39 -162 5 -7 6 -13 2 -13 -4 0 -2 -7 5 -15 7 -8 10
-15 6 -15 -3 0 14 -31 39 -69 40 -64 121 -150 149 -160 6 -2 13 -7 16 -11 3
-4 37 -20 75 -35 61 -25 83 -29 175 -29 86 -1 165 6 165 14 0 1 8 3 18 5 19 4
105 44 126 60 77 55 180 199 196 271 2 11 10 48 18 84 14 66 16 225 3 290 -22
114 -82 240 -145 307 -66 69 -191 137 -271 147 -19 3 -35 5 -35 6 0 2 -95 6
-98 4z"/>
<path d="M2376 4944 c-247 -51 -407 -270 -407 -559 0 -239 92 -436 251 -542
44 -28 106 -58 112 -52 2 1 14 -3 27 -10 34 -19 189 -22 260 -6 155 37 279
138 344 280 33 73 52 171 52 275 0 138 -13 209 -52 300 -3 8 -7 18 -7 21 -3
16 -79 129 -108 158 -114 117 -300 170 -472 135z"/>
<path d="M8076 7831 c1 -82 5 -154 8 -159 3 -6 3 -13 -2 -16 -8 -5 -7 -134 1
-143 3 -3 3 -15 -1 -27 -9 -25 -8 -69 2 -85 4 -6 4 -11 -1 -11 -7 0 -9 -183
-2 -200 1 -3 0 -9 -1 -15 -6 -24 -2 -504 4 -514 4 -6 3 -11 -3 -11 -6 0 -6
-11 -1 -30 5 -16 6 -30 2 -30 -6 0 -7 -185 -1 -200 1 -3 0 -9 -1 -15 -6 -26
-4 -228 2 -238 4 -6 4 -15 1 -21 -8 -13 -7 -351 1 -364 3 -6 3 -13 -2 -16 -8
-5 -7 -134 1 -143 3 -3 3 -15 -1 -27 -9 -25 -8 -69 2 -85 4 -6 4 -11 -1 -11
-7 0 -9 -183 -2 -200 1 -3 0 -9 -1 -15 -6 -24 -2 -504 4 -514 4 -6 3 -11 -3
-11 -6 0 -6 -11 -1 -30 5 -16 6 -30 2 -30 -6 0 -7 -185 -1 -200 1 -3 0 -9 -1
-15 -6 -26 -4 -228 2 -238 4 -6 4 -15 1 -21 -9 -13 -7 -402 1 -415 4 -6 3 -11
-3 -11 -6 0 -6 -11 -1 -30 5 -16 6 -30 2 -30 -6 0 -7 -185 -1 -200 1 -3 0 -9
-1 -15 -7 -28 -5 -222 3 -237 4 -10 4 -18 -1 -18 -8 0 -6 -73 3 -97 2 -7 0
-13 -5 -13 -5 0 -5 -13 0 -30 5 -16 6 -30 2 -30 -6 0 -7 -185 -1 -200 1 -3 0
-9 -1 -15 -7 -28 -5 -222 3 -237 4 -10 4 -18 -1 -18 -8 0 -6 -73 3 -97 2 -7 0
-13 -5 -13 -5 0 -5 -13 0 -30 5 -16 6 -30 2 -30 -9 0 -7 -255 2 -268 3 -6 2
-14 -4 -17 -7 -4 -8 -11 -1 -18 7 -9 130 -12 463 -12 l453 1 3 2932 2 2932
-462 0 -463 -1 1 -148z"/>
</g>
</svg>
